<svg width="32" height="32" viewBox="0 0 32 32" fill="none" xmlns="http://www.w3.org/2000/svg">
<g clip-path="url(#clip0_109_36)">
<path d="M16 5.64434L9.4 12.0232C8.09481 13.2848 7.20599 14.8922 6.84594 16.642C6.48589 18.3918 6.67077 20.2055 7.37722 21.8537C8.08367 23.502 9.27994 24.9108 10.8148 25.9019C12.3496 26.8931 14.1541 27.4221 16 27.4221C17.8459 27.4221 19.6504 26.8931 21.1852 25.9019C22.7201 24.9108 23.9163 23.502 24.6228 21.8537C25.3292 20.2055 25.5141 18.3918 25.1541 16.642C24.794 14.8922 23.9052 13.2848 22.6 12.0232L16 5.64434ZM16 2L24.4853 10.2011C26.1636 11.8231 27.3064 13.8896 27.7694 16.1394C28.2324 18.3892 27.9948 20.7212 27.0865 22.8404C26.1783 24.9597 24.6402 26.771 22.6668 28.0454C20.6934 29.3198 18.3734 30 16 30C13.6266 30 11.3066 29.3198 9.33318 28.0454C7.35979 26.771 5.82172 24.9597 4.91346 22.8404C4.00521 20.7212 3.76756 18.3892 4.23057 16.1394C4.69358 13.8896 5.83646 11.8231 7.51467 10.2011L16 2Z" fill="#47474D"/>
</g>
<defs>
<clipPath id="clip0_109_36">
<rect width="32" height="32" fill="white"/>
</clipPath>
</defs>
</svg>
