<svg width="16" height="19" viewBox="0 0 16 19" fill="none" xmlns="http://www.w3.org/2000/svg">
<path d="M8 2.58323L3.875 6.70823C3.05926 7.52406 2.50374 8.56346 2.27871 9.695C2.05368 10.8265 2.16923 11.9994 2.61076 13.0653C3.05229 14.1311 3.79997 15.0421 4.75924 15.6831C5.71851 16.324 6.8463 16.6661 8 16.6661C9.1537 16.6661 10.2815 16.324 11.2408 15.6831C12.2 15.0421 12.9477 14.1311 13.3892 13.0653C13.8308 11.9994 13.9463 10.8265 13.7213 9.695C13.4963 8.56346 12.9408 7.52406 12.125 6.70823L8 2.58323ZM8 0.226562L13.3033 5.5299C14.3522 6.57879 15.0665 7.91517 15.3559 9.37002C15.6453 10.8249 15.4968 12.3329 14.9291 13.7033C14.3614 15.0738 13.4001 16.2451 12.1668 17.0692C10.9334 17.8933 9.48336 18.3332 8 18.3332C6.51665 18.3332 5.0666 17.8933 3.83324 17.0692C2.59987 16.2451 1.63858 15.0738 1.07092 13.7033C0.503256 12.3329 0.354725 10.8249 0.644107 9.37002C0.933489 7.91517 1.64779 6.57879 2.69667 5.5299L8 0.226562Z" fill="#AEAEB3"/>
</svg>
